# xmcd CD database file
#
# Track frame offsets:
#        162
#        11137
#        21907
#        35722
#        45615
#        56422
#        66922
#        76652
#        87230
#        100170
#        112050
#        122837
#        135782
#        144832
#
# Disc length: 2084 seconds
#
# Revision: 0
# Processed by: cddbd v1.5.2PL0 Copyright (c) Steve Scherf et al.
# Submitted via: CUERipper 2.1.6
#
DISCID=b308220e
DTITLE=Screamin' Jay Hawkins - Frenzy
DYEAR=1982
DGENRE=Blues
TTITLE0=I Put A Spell On You
TTITLE1=Little Demon
TTITLE2=Alligator Wine
TTITLE3=Frenzy
TTITLE4=I Love Paris
TTITLE5=Hong Kong
TTITLE6=Person To Person
TTITLE7=There's Something Wrong With You
TTITLE8=Orange Coloured Sky
TTITLE9=Temptation
TTITLE10=Yellow Coat
TTITLE11=If You Are but A Dream
TTITLE12=You Made Me Love You
TTITLE13=Deep Purple
EXTD=
EXTT0=
EXTT1=
EXTT2=
EXTT3=
EXTT4=
EXTT5=
EXTT6=
EXTT7=
EXTT8=
EXTT9=
EXTT10=
EXTT11=
EXTT12=
EXTT13=
PLAYORDER=
